<svg version="1.2" xmlns="http://www.w3.org/2000/svg" viewBox="0 0 609 594" width="609" height="594">
	<style>
		.s0 { fill: #ffffff } 
	</style>
	<path id="Path 0" fill-rule="evenodd" class="s0" d="m200 0.41c167.43 0.23 170.68 0.27 180.5 2.28 5.5 1.13 14.05 3.29 19 4.8 4.95 1.51 12.82 4.44 17.5 6.5 4.68 2.06 12.32 6 17 8.76 4.68 2.75 12.3 7.87 16.95 11.38 4.65 3.5 12.1 9.97 16.55 14.37 4.46 4.4 10.79 11.6 14.07 16 3.29 4.4 7.14 9.8 8.56 12 1.42 2.2 4.85 8.5 7.62 14 2.77 5.5 6.68 14.72 8.68 20.5 2.01 5.78 4.53 14.78 5.59 20 1.07 5.22 2.44 15.57 3.04 23 0.81 9.9 0.8 16.57-0.03 25-0.62 6.32-2.05 15.78-3.19 21-1.14 5.22-3.64 14-5.56 19.5-1.92 5.5-5.07 13.15-7 17-1.92 3.85-5.12 9.7-7.09 13-1.97 3.3-5.52 8.7-7.89 12-2.36 3.3-3.96 6.29-3.55 6.65 0.41 0.36 4.35 1.66 8.75 2.88 4.4 1.23 10.81 3.3 14.25 4.6 3.44 1.3 9.96 4.23 14.5 6.5 4.54 2.26 11.4 6.16 15.25 8.64 3.85 2.49 10.15 7.03 14 10.1 3.85 3.06 10.32 8.95 14.39 13.1 4.06 4.14 9.29 10.01 11.61 13.03 2.32 3.02 6.26 8.65 8.75 12.5 2.49 3.85 6.56 11.05 9.04 16 2.47 4.95 5.94 13.05 7.69 18 1.75 4.95 4.27 13.73 5.6 19.5 1.32 5.77 2.94 16.8 3.58 24.5 0.9 10.75 0.9 16.9 0 26.5-0.65 6.88-2.09 16.32-3.2 21-1.1 4.68-3.17 12.1-4.6 16.5-1.42 4.4-4.96 12.95-7.85 19-2.9 6.05-8 15.05-11.33 20-3.34 4.95-9.24 12.71-13.12 17.25-3.88 4.54-11.22 11.71-16.31 15.93-5.09 4.23-12.85 10.03-17.25 12.91-4.4 2.87-12.05 7.25-17 9.73-4.95 2.48-12.82 5.84-17.5 7.47-4.68 1.63-12.32 3.91-17 5.07-4.68 1.16-11.88 2.58-16 3.15-5.03 0.7-79.18 1.03-442.5 0.93l-5.89-2.72c-3.49-1.61-7.54-4.55-9.95-7.22-2.23-2.48-4.98-6.52-6.11-9-2.04-4.48-2.05-5.44-2.3-182.75-0.24-173.93-0.2-178.38 1.68-183.5 1.09-2.96 3.81-7.23 6.25-9.8 2.38-2.5 7.02-5.86 10.32-7.46 5.17-2.52 7.11-2.92 14-2.85 6.64 0.05 8.94 0.53 13.5 2.82 4.5 2.25 18.94 16.13 79.5 76.48 60.48 60.26 76.1 75.29 85.5 82.26 6.32 4.69 16.45 11.5 22.5 15.12 6.05 3.63 15.95 8.81 22 11.52 6.05 2.7 16.62 6.74 23.5 8.96 6.87 2.22 18.35 5.2 25.5 6.61 7.15 1.42 17.05 3.03 22 3.58 4.95 0.54 33.52 0.99 63.5 0.99 34.1 0 56.56 0.39 60 1.05 3.02 0.58 6.85 1.7 8.5 2.49 1.65 0.78 4.96 3.12 7.36 5.2 2.71 2.35 5.53 6.24 7.46 10.28 2.57 5.39 3.09 7.7 3.06 13.5-0.02 5.28-0.64 8.35-2.53 12.5-1.37 3.02-3.87 7.07-5.54 9-1.68 1.93-5.24 4.7-7.93 6.18-2.68 1.47-8.03 3.22-11.88 3.88-5.18 0.9-21.4 1.06-62.5 0.65-41.23-0.42-58.59-0.96-67.5-2.11-6.6-0.84-15.82-2.25-20.5-3.13-4.68-0.88-13.68-2.91-20-4.49-6.32-1.59-16.45-4.54-22.5-6.55-6.05-2.02-15.05-5.45-20-7.64-4.95-2.18-14.85-6.95-22-10.6-7.15-3.64-18.63-10.39-25.5-15-6.88-4.61-16.55-11.57-21.5-15.47-4.95-3.91-29.25-27.26-54-51.9-24.75-24.64-45.56-44.8-46.25-44.81-0.99-0.01-1.2 23.47-0.75 229.49l192 0.28c136.82 0.2 194.44-0.04 200.5-0.83 4.68-0.61 12.1-2.26 16.5-3.65 4.4-1.4 11.15-4.12 15-6.05 3.85-1.94 9.48-5.2 12.5-7.24 3.02-2.05 8.15-6.15 11.38-9.12 3.24-2.96 8.03-8.09 10.64-11.39 2.61-3.3 6.21-8.48 8-11.5 1.8-3.02 4.49-8.43 5.98-12 1.49-3.58 3.66-10.33 4.83-15 1.16-4.68 2.4-11.88 2.76-16 0.37-4.21 0.13-12.11-0.56-18-0.66-5.77-2.34-14.1-3.72-18.5-1.39-4.4-4.47-11.83-6.86-16.5-2.39-4.68-6.56-11.43-9.25-15-2.69-3.58-8-9.39-11.8-12.93-3.79-3.54-9.83-8.3-13.4-10.59-3.57-2.29-8.3-5.09-10.5-6.22-2.2-1.13-6.93-3.05-10.5-4.26-3.57-1.21-9.43-2.9-13-3.76-5.37-1.28-17.73-1.67-71-2.21-55.97-0.58-65.76-0.9-74-2.46-5.23-0.98-14.23-3.33-20-5.22-5.77-1.89-15-5.58-20.5-8.2-5.5-2.62-13.38-6.94-17.5-9.6-4.13-2.66-9.97-6.84-13-9.28-3.03-2.45-19.67-18.47-36.99-35.61-17.32-17.14-71.35-70.76-120.06-119.16-85-84.46-88.66-88.24-90.86-94-1.86-4.89-2.21-7.38-1.85-13.5 0.32-5.52 1.13-8.88 3.1-12.75 1.46-2.89 4.23-6.83 6.16-8.75 1.92-1.93 5.41-4.45 7.75-5.62 2.34-1.16 6.05-2.47 8.25-2.91 2.2-0.43 80.72-0.68 174.5-0.56zm-0.27 154.65c64.32 64.17 89.64 88.8 94.77 92.18 3.85 2.54 10.6 6.29 15 8.32 4.4 2.04 12.27 4.81 17.5 6.17 7.55 1.95 12.17 2.48 22.5 2.56 9.11 0.08 15.54-0.43 21.5-1.7 4.68-1 11.88-3.15 16-4.79 4.12-1.63 11.04-5.07 15.37-7.64 4.33-2.56 11.76-8.3 16.5-12.75 4.75-4.46 10.93-11.43 13.75-15.5 2.82-4.08 6.48-10.11 8.13-13.41 1.66-3.3 4.15-9.6 5.54-14 1.39-4.4 3.08-11.83 3.76-16.5 0.76-5.18 1-12.4 0.62-18.5-0.34-5.5-1.69-14.28-3.01-19.5-1.32-5.23-3.94-12.88-5.82-17-1.89-4.13-5.89-11.05-8.89-15.38-3-4.34-8.94-11.2-13.2-15.25-4.26-4.06-10.11-8.88-13-10.73-2.89-1.85-7.73-4.62-10.75-6.15-3.02-1.53-8.65-3.85-12.5-5.17-3.85-1.31-11.05-3.04-16-3.85-7.56-1.23-28.78-1.46-132.25-1.47-97.93 0-123.25 0.26-123.27 1.25-0.01 0.69 39.48 40.65 87.75 88.81z"/>
</svg>