<svg width="609" height="592" viewBox="0 0 609 592" fill="none" xmlns="http://www.w3.org/2000/svg">
<path fill-rule="evenodd" clip-rule="evenodd" d="M198.941 0.0249947C356.116 0.224953 369.223 0.324931 378.027 1.92459C383.229 2.92438 392.234 5.12392 398.036 6.82356C403.839 8.42322 411.943 11.3226 416.045 13.1222C420.147 14.9218 427.75 18.821 432.953 21.8204C438.055 24.7198 446.159 30.0187 450.862 33.6179C455.564 37.2171 463.568 44.2157 468.57 49.1146C473.472 54.1136 480.576 62.4118 484.277 67.6107C487.979 72.8096 493.682 82.3076 496.984 88.6063C500.285 94.905 504.587 104.803 506.588 110.602C508.589 116.4 510.99 125.399 512.091 130.597C513.191 135.796 514.492 146.194 515.092 153.593C515.893 163.191 515.893 170.489 515.092 178.587C514.492 184.886 512.991 194.784 511.691 200.583C510.39 206.381 507.589 215.579 505.588 221.078C503.487 226.577 500.485 233.776 498.884 237.075C497.184 240.374 494.282 245.773 492.281 249.072C490.28 252.372 486.779 257.771 484.378 261.07C481.976 264.369 480.376 267.369 480.876 267.768C481.276 268.068 485.178 269.368 489.58 270.568C493.982 271.768 500.885 274.067 504.887 275.667C508.789 277.266 515.392 280.166 519.394 282.165C523.296 284.165 529.699 287.864 533.601 290.364C537.503 292.763 542.905 296.662 545.607 298.862C548.408 301.161 552.61 304.761 555.111 306.96C557.612 309.16 562.915 314.559 566.917 318.958C570.919 323.457 577.022 331.155 580.323 336.054C583.625 340.953 588.527 349.351 591.128 354.55C593.73 359.749 597.331 368.147 599.132 373.046C600.833 377.945 603.434 386.743 604.735 392.542C606.036 398.341 607.636 409.339 608.337 417.037C609.237 427.935 609.237 433.833 608.237 444.031C607.536 451.13 605.735 461.927 604.235 468.026C602.634 474.125 599.733 483.323 597.632 488.522C595.631 493.721 592.129 501.419 589.928 505.518C587.727 509.617 583.825 516.116 581.324 520.015C578.723 523.914 573.22 531.013 569.118 535.912C565.016 540.811 557.312 548.509 552.11 552.908C546.907 557.207 539.004 563.206 534.601 566.105C530.199 568.905 522.596 573.304 517.593 575.803C512.591 578.203 504.787 581.602 500.085 583.302C495.383 584.901 486.378 587.501 468.57 592H22.357L18.155 589.8C15.7539 588.501 12.0521 585.801 9.75101 583.802C7.54996 581.702 4.44848 577.503 0.346525 569.005L0.14643 390.743C-0.153714 217.079 -0.153714 212.48 1.74719 207.381C2.94777 203.982 5.44896 200.283 8.55044 197.283C11.1517 194.584 15.8539 191.185 18.8554 189.785C23.2575 187.685 25.8587 187.185 31.8616 187.185C37.8644 187.185 40.5657 187.785 45.368 189.985C50.7706 192.384 58.9745 200.283 125.906 266.969C179.432 320.257 203.143 343.153 209.947 348.251C215.149 352.151 224.353 358.349 230.456 362.149C236.559 365.848 246.664 371.347 252.967 374.246C259.27 377.145 270.575 381.544 277.979 383.944C285.383 386.343 296.188 389.343 301.99 390.543C307.793 391.742 317.198 393.342 323.001 394.142C331.004 395.142 347.012 395.541 389.032 395.541C423.849 395.541 446.66 395.941 450.061 396.541C453.063 397.141 456.964 398.241 458.565 399.041C460.166 399.841 463.568 402.14 465.969 404.24C468.47 406.439 471.571 410.638 473.272 414.038C475.673 419.037 476.174 421.336 476.274 427.535C476.374 433.433 475.873 436.133 473.872 440.532C472.572 443.531 470.071 447.63 468.37 449.53C466.669 451.43 463.167 454.229 460.466 455.729C457.765 457.228 452.662 458.828 449.061 459.428C445.159 460.128 424.949 460.528 399.037 460.528C375.125 460.528 347.912 460.028 338.508 459.528C329.103 459.028 316.597 457.928 310.495 457.028C304.392 456.129 293.386 454.029 285.983 452.429C278.579 450.73 265.073 446.931 255.969 443.931C244.763 440.232 233.358 435.433 220.452 429.034C209.746 423.836 195.74 415.937 188.436 411.038C181.233 406.239 171.328 399.141 166.426 395.242C161.523 391.342 137.212 368.047 112.4 343.352C87.6882 318.758 66.7782 298.562 66.1779 298.562C65.1775 298.562 64.9774 322.057 65.3776 528.014L258.97 528.313C427.65 528.513 453.663 528.313 461.367 527.014C466.169 526.214 472.872 524.514 476.274 523.414C479.775 522.215 485.678 519.615 489.58 517.716C493.482 515.816 499.085 512.617 502.086 510.517C505.087 508.518 510.49 504.119 513.992 500.919C517.493 497.72 523.096 491.421 526.298 487.022C529.599 482.623 534.001 475.425 536.102 471.026C538.203 466.626 541.205 458.528 542.705 453.029C545.106 444.331 545.407 441.232 545.407 429.034C545.407 419.436 544.906 412.538 543.706 407.039C542.705 402.64 540.604 395.641 538.904 391.542C537.303 387.443 534.301 381.344 532.4 378.045C530.399 374.746 526.898 369.547 524.597 366.548C522.296 363.548 517.293 358.149 513.491 354.65C509.69 351.051 503.487 346.152 499.585 343.752C495.683 341.253 489.68 337.854 486.078 336.254C482.477 334.654 475.273 332.155 460.566 328.156L395.035 327.456C340.809 326.956 328.103 326.556 321.5 325.156C317.098 324.257 309.594 322.457 304.692 321.057C299.889 319.657 291.185 316.458 285.182 313.859C279.28 311.259 270.876 306.86 266.474 304.161C262.071 301.561 255.768 297.262 252.467 294.763C249.165 292.263 228.856 272.867 207.445 251.672C186.035 230.376 131.709 176.588 86.8878 132.097C23.6576 69.3104 4.74863 49.9145 2.84772 46.1153C0.746716 41.8162 0.346525 39.8166 0.346525 32.1182C0.446573 24.3199 0.846764 22.4203 3.14786 17.9212C4.64858 15.0218 7.44992 11.0227 9.35082 9.12307C11.2517 7.22347 14.7534 4.62402 17.0545 3.52426C19.4556 2.32451 23.1574 1.02478 25.3585 0.624868C27.5595 0.124974 105.697 -0.0749842 198.941 0.0249947V0.0249947ZM199.642 154.692C265.573 220.478 289.184 243.374 294.487 246.773C298.389 249.272 304.192 252.672 307.493 254.371C310.795 255.971 317.298 258.47 322 259.97C326.702 261.37 335.006 263.069 340.509 263.669C346.011 264.269 353.915 264.469 358.017 264.069C362.119 263.769 369.123 262.57 373.525 261.57C377.927 260.57 385.13 258.17 389.532 256.371C393.934 254.471 400.838 250.872 404.74 248.273C408.741 245.673 415.545 240.274 419.747 236.175C424.049 232.176 429.851 225.477 432.653 221.478C435.454 217.379 439.056 211.58 440.557 208.581C442.057 205.582 444.458 199.983 445.759 196.084C447.06 192.284 448.761 185.486 449.561 181.087C450.461 176.688 451.062 169.689 451.062 165.59C451.062 161.491 450.561 154.992 450.061 151.093C449.461 147.294 448.36 141.395 447.46 138.096C446.66 134.797 444.559 128.698 442.758 124.599C441.057 120.5 437.055 113.301 433.953 108.602C430.852 103.903 424.849 96.7046 420.447 92.6054C416.145 88.4063 410.542 83.7073 408.041 82.0077C405.54 80.308 400.638 77.4087 397.036 75.609C393.434 73.8094 387.431 71.21 383.529 69.9102C379.628 68.6105 372.724 66.9109 368.022 66.111C360.819 64.8113 340.509 64.6114 235.659 64.6114C137.312 64.6114 111.9 64.9113 111.9 65.9111C111.9 66.511 151.419 106.503 199.642 154.692V154.692Z" fill="#454545"/>
</svg>
